<mxfile host="app.diagrams.net">
  <diagram name="Sequence Diagram Login" id="1">
    <mxGraphModel dx="1000" dy="800" grid="1" gridSize="10" guides="1" tooltips="1" connect="1" arrows="1" fold="1" page="1" pageScale="1" pageWidth="827" pageHeight="1169">
      <root>
        <mxCell id="0"/>
        <mxCell id="1" parent="0"/>
        
        <!-- Actor -->
        <mxCell id="2" value="User" style="shape=umlActor;verticalLabelPosition=bottom;verticalAlign=top;" vertex="1" parent="1">
          <mxGeometry x="20" y="20" width="40" height="80" as="geometry"/>
        </mxCell>

        <!-- Lifeline User -->
        <mxCell id="3" style="shape=line;strokeColor=#000000;" vertex="1" parent="1">
          <mxGeometry x="40" y="100" width="1" height="400" as="geometry"/>
        </mxCell>

        <!-- Boundary -->
        <mxCell id="4" value=":LoginForm [boundary]" style="shape=rectangle;whiteSpace=wrap;html=1;" vertex="1" parent="1">
          <mxGeometry x="120" y="20" width="120" height="30" as="geometry"/>
        </mxCell>

        <!-- Lifeline Boundary -->
        <mxCell id="5" style="shape=line;strokeColor=#000000;" vertex="1" parent="1">
          <mxGeometry x="180" y="50" width="1" height="450" as="geometry"/>
        </mxCell>

        <!-- Controller -->
        <mxCell id="6" value=":LoginController [controller]" style="shape=rectangle;whiteSpace=wrap;html=1;" vertex="1" parent="1">
          <mxGeometry x="300" y="20" width="140" height="30" as="geometry"/>
        </mxCell>

        <!-- Lifeline Controller -->
        <mxCell id="7" style="shape=line;strokeColor=#000000;" vertex="1" parent="1">
          <mxGeometry x="370" y="50" width="1" height="450" as="geometry"/>
        </mxCell>

        <!-- Entity -->
        <mxCell id="8" value=":UserEntity [entity]" style="shape=rectangle;whiteSpace=wrap;html=1;" vertex="1" parent="1">
          <mxGeometry x="500" y="20" width="120" height="30" as="geometry"/>
        </mxCell>

        <!-- Lifeline Entity -->
        <mxCell id="9" style="shape=line;strokeColor=#000000;" vertex="1" parent="1">
          <mxGeometry x="560" y="50" width="1" height="450" as="geometry"/>
        </mxCell>

        <!-- Messages -->
        <mxCell id="10" value="inputLogin()" style="endArrow=block;html=1;strokeColor=#000000;" edge="1" parent="1" source="3" target="5">
          <mxGeometry relative="1" as="geometry">
            <mxPoint x="40" y="130" as="sourcePoint"/>
            <mxPoint x="180" y="130" as="targetPoint"/>
          </mxGeometry>
        </mxCell>

        <mxCell id="11" value="submitLogin(email, pass)" style="endArrow=block;html=1;strokeColor=#000000;" edge="1" parent="1" source="5" target="7">
          <mxGeometry relative="1" as="geometry">
            <mxPoint x="180" y="160" as="sourcePoint"/>
            <mxPoint x="370" y="160" as="targetPoint"/>
          </mxGeometry>
        </mxCell>

        <mxCell id="12" value="findUserByEmail()" style="endArrow=block;html=1;strokeColor=#000000;" edge="1" parent="1" source="7" target="9">
          <mxGeometry relative="1" as="geometry">
            <mxPoint x="370" y="190" as="sourcePoint"/>
            <mxPoint x="560" y="190" as="targetPoint"/>
          </mxGeometry>
        </mxCell>

        <mxCell id="13" value="return userData" style="dashed=1;endArrow=open;html=1;strokeColor=#000000;" edge="1" parent="1" source="9" target="7">
          <mxGeometry relative="1" as="geometry">
            <mxPoint x="560" y="220" as="sourcePoint"/>
            <mxPoint x="370" y="220" as="targetPoint"/>
          </mxGeometry>
        </mxCell>

        <mxCell id="14" value="validatePassword()" style="endArrow=block;html=1;strokeColor=#000000;" edge="1" parent="1" source="7" target="7">
          <mxGeometry relative="1" as="geometry">
            <mxPoint x="370" y="250" as="sourcePoint"/>
            <mxPoint x="430" y="250" as="targetPoint"/>
          </mxGeometry>
        </mxCell>

        <mxCell id="15" value="return success" style="dashed=1;endArrow=open;html=1;strokeColor=#000000;" edge="1" parent="1" source="7" target="5">
          <mxGeometry relative="1" as="geometry">
            <mxPoint x="370" y="280" as="sourcePoint"/>
            <mxPoint x="180" y="280" as="targetPoint"/>
          </mxGeometry>
        </mxCell>
      </root>
    </mxGraphModel>
  </diagram>
</mxfile>
